<svg xmlns="http://www.w3.org/2000/svg" xmlns:xlink="http://www.w3.org/1999/xlink" xmlns:serif="http://www.serif.com/" viewBox="0 0 267 333.75" version="1.1" xml:space="preserve" style="" x="0px" y="0px" fill-rule="evenodd" clip-rule="evenodd" stroke-linejoin="round" stroke-miterlimit="2"><path d="M65.241,194.34l-1.929,11.541c-0.888,5.312 -5.05,9.474 -10.362,10.362l-11.541,1.929c-1.731,0.289 -2.998,1.786 -2.998,3.541c-0,1.754 1.267,3.251 2.998,3.54l11.54,1.929c5.313,0.888 9.475,5.05 10.363,10.362l1.929,11.541c0.289,1.731 1.786,2.998 3.54,2.998c1.755,0 3.252,-1.267 3.541,-2.998l1.929,-11.54c0.888,-5.313 5.05,-9.475 10.362,-10.363l11.541,-1.929c1.73,-0.289 2.998,-1.786 2.998,-3.54c0,-1.755 -1.268,-3.252 -2.998,-3.541l-11.54,-1.929c-5.313,-0.888 -9.475,-5.05 -10.363,-10.362l-1.929,-11.541c-0.289,-1.73 -1.786,-2.998 -3.541,-2.998c-1.754,-0 -3.251,1.268 -3.54,2.998Zm152.574,-176.778l-1.899,11.364c-0.872,5.217 -4.96,9.305 -10.177,10.177l-11.365,1.899c-1.719,0.288 -2.978,1.775 -2.978,3.518c-0,1.743 1.259,3.231 2.978,3.518l11.364,1.899c5.218,0.872 9.306,4.96 10.178,10.177l1.899,11.364c0.287,1.72 1.775,2.979 3.518,2.979c1.743,0 3.23,-1.259 3.518,-2.979l1.899,-11.363c0.872,-5.218 4.96,-9.306 10.177,-10.178l11.364,-1.899c1.719,-0.287 2.979,-1.775 2.979,-3.518c-0,-1.743 -1.26,-3.23 -2.979,-3.518l-11.364,-1.899c-5.217,-0.872 -9.305,-4.96 -10.177,-10.177l-1.899,-11.364c-0.288,-1.719 -1.775,-2.979 -3.518,-2.979c-1.743,0 -3.231,1.26 -3.518,2.979Zm-179.168,4.321l-1.39,8.316c-0.598,3.583 -3.405,6.39 -6.988,6.989l-8.316,1.389c-1.527,0.256 -2.646,1.577 -2.646,3.126c0,1.548 1.119,2.87 2.646,3.125l8.316,1.39c3.583,0.599 6.39,3.406 6.988,6.988l1.39,8.316c0.256,1.527 1.577,2.647 3.126,2.647c1.548,-0 2.87,-1.12 3.125,-2.647l1.39,-8.315c0.599,-3.583 3.406,-6.39 6.988,-6.989l8.316,-1.39c1.527,-0.255 2.646,-1.577 2.646,-3.125c0,-1.549 -1.119,-2.87 -2.646,-3.126l-8.316,-1.389c-3.582,-0.599 -6.389,-3.406 -6.988,-6.989l-1.39,-8.315c-0.255,-1.528 -1.577,-2.647 -3.125,-2.647c-1.549,0 -2.87,1.119 -3.126,2.646Z"/><path d="M148.196,49.684l-11.076,40.834c-0.763,2.812 -2.464,5.279 -4.821,6.991c-2.357,1.713 -5.229,2.568 -8.139,2.425c-0,-0 -42.258,-2.084 -42.258,-2.084c-4.663,-0.23 -8.902,2.693 -10.345,7.133c-1.443,4.44 0.269,9.296 4.176,11.851c0,-0 35.413,23.152 35.413,23.152c2.439,1.595 4.259,3.975 5.159,6.746c0.901,2.771 0.827,5.766 -0.209,8.489c0,0 -15.041,39.546 -15.041,39.546c-1.659,4.364 -0.189,9.299 3.588,12.043c3.777,2.744 8.924,2.617 12.561,-0.31c0,0 32.963,-26.525 32.963,-26.525c2.27,-1.826 5.096,-2.822 8.009,-2.822c2.914,-0 5.74,0.996 8.01,2.822c-0,0 32.962,26.525 32.962,26.525c3.638,2.927 8.785,3.054 12.562,0.31c3.777,-2.744 5.247,-7.679 3.587,-12.043c0,0 -15.04,-39.546 -15.04,-39.546c-1.036,-2.723 -1.11,-5.718 -0.21,-8.489c0.901,-2.771 2.721,-5.151 5.16,-6.746c-0,0 35.412,-23.152 35.412,-23.152c3.908,-2.555 5.619,-7.411 4.177,-11.851c-1.443,-4.44 -5.682,-7.363 -10.345,-7.133c-0,-0 -42.258,2.084 -42.258,2.084c-2.91,0.143 -5.782,-0.712 -8.139,-2.425c-2.357,-1.712 -4.058,-4.179 -4.821,-6.991c0,0 -11.076,-40.834 -11.076,-40.834c-1.222,-4.506 -5.312,-7.634 -9.981,-7.634c-4.668,0 -8.758,3.128 -9.98,7.634Z"/><path d="M111.208,156.352l0.994,-2.612c0.698,-1.835 0.747,-3.853 0.141,-5.721c-0.607,-1.867 -1.834,-3.471 -3.477,-4.545c-0,-0 -35.413,-23.153 -35.413,-23.153c-5.482,-3.584 -7.883,-10.397 -5.859,-16.626c2.024,-6.229 7.971,-10.33 14.513,-10.007c0,-0 42.258,2.084 42.258,2.084c1.961,0.097 3.896,-0.479 5.485,-1.633c1.588,-1.154 2.734,-2.817 3.248,-4.712l3.863,-14.239l-12.601,0.621c-2.564,0.126 -5.094,-0.627 -7.171,-2.136c-2.077,-1.509 -3.576,-3.683 -4.248,-6.16c0,-0 -9.944,-36.661 -9.944,
-36.661c-1.122,-4.138 -4.878,-7.011 -9.166,-7.011c-4.288,0 -8.044,2.873 -9.166,7.011c0,0 -9.944,36.661 -9.944,36.661c
-0.672,2.477 -2.171,4.651 -4.248,6.16c-2.077,1.509 -4.607,2.262 -7.171,
2.136c-0,0 -37.939,-1.871 -37.939,-1.871c-4.283,-0.211 -8.176,2.473 -9.5,6.
551c-1.325,4.077 0.246,8.537 3.835,10.884c-0,-0 31.793,20.786 31.793,20.78
6c2.149,1.405 3.753,3.502 4.546,5.943c0.793,2.442 0.728,5.081 -0.184,7.481
c-0,-0 -13.504,35.504 -13.504,35.504c-1.524,4.007 -0.174,8.539 3.295,11.059c3.469,2.52 8.196,2.404 11.536,-0.284c0,-0 29.594,-23.814 29.594,-23.814c2,-1.609 4.49,-2.487 7.057,-2.487c2.567,0 5.057,0.878 7.058,2.487l10.319,8.304Z"/><text x=
"0" y="282" fill="#7ce8d8" font-size="5px" font-weight="bold" font-family="'Helvetica Neue', Helvetica, Arial-Unicode, Arial, Sans-serif">Created by zafdesign</text><text x="0" y="287" fill="#7ce8d8" font-size="5px" font-weight="bold" font-family="'Helvetica Neue', Helvetica, Arial-Unicode, Arial, Sans-serif">from the Noun Project</text></svg>